<svg xmlns="http://www.w3.org/2000/svg" xmlns:xlink="http://www.w3.org/1999/xlink" viewBox="3114 1319 27.397 19.551"><defs><style>.a{fill:none;clip-rule:evenodd;}.b{clip-path:url(#a);}.c{fill:#94979a;}.d{clip-path:url(#b);}</style><clipPath id="a"><path class="a" d="M11.313-43.636l.964-2.121a.986.986,0,0,0-.037-.889A6.542,6.542,0,0,0,6.533-50,6.541,6.541,0,0,0,0-43.467C0-36.719,9.769-31.2,10.883-30.592a.983.983,0,0,0,.472.12.986.986,0,0,0,.6-.2.987.987,0,0,0,.362-1.01l-1.061-4.509,2.134-3.048a.986.986,0,0,0,.024-1.1l-2.1-3.3ZM9.385-36.962a.985.985,0,0,0-.152.791l.623,2.646a31.738,31.738,0,0,1-3.3-2.481c-2.092-1.816-4.587-4.584-4.587-7.462a4.566,4.566,0,0,1,4.56-4.56,4.566,4.566,0,0,1,3.728,1.936L9.3-43.966a.986.986,0,0,0,.066.938l2.033,3.2-2.009,2.87Zm0,0" transform="translate(0 50)"/></clipPath><clipPath id="b"><path class="a" d="M42.055-50a6.536,6.536,0,0,0-5.584,3.142.989.989,0,0,0-.2.285l-1.185,2.607a.986.986,0,0,0,.066.938l2.033,3.2-2.009,2.87a.987.987,0,0,0-.152.791l1.162,4.939a.987.987,0,0,0,.49.641l.042.023a.986.986,0,0,0,.47.119.988.988,0,0,0,.464-.116c.446-.238,10.933-5.914,10.933-12.9A6.541,6.541,0,0,0,42.055-50Zm-.269,14.2a33.166,33.166,0,0,1-3.971,2.857l-.765-3.252,2.134-3.048a.987.987,0,0,0,.024-1.1l-2.1-3.3.856-1.883a1,1,0,0,0,.093-.14,4.564,4.564,0,0,1,4-2.368,4.566,4.566,0,0,1,4.56,4.56c0,2.959-2.627,5.8-4.83,7.67Zm0,0" transform="translate(-35.001 50)"/></clipPath></defs><g transform="translate(3114 1319)"><g class="b"><path class="c" d="M-5-31.526H12.512V-55H-5Z" transform="translate(3.027 53.027)"/></g><g class="d" transform="translate(13.81)"><path class="c" d="M30-31.5H47.534V-55H30Z" transform="translate(-31.974 53.027)"/></g></g></svg>